<svg width="167" height="124" viewBox="0 0 167 124" fill="none" xmlns="http://www.w3.org/2000/svg">
<path d="M94.3164 52.9495L17.194 99.0732C17.194 99.0732 7.07149 105.686 4.42536 110.286L2.80962 113.856C2.80962 113.856 0.618222 116.945 0.158657 119.743C-0.300909 122.539 0.165913 123.163 2.82656 123.681C5.70247 124.239 13.8005 124.104 20.7278 120.793C26.1628 118.195 42.3589 108.936 42.3589 108.936C75.2073 89.0084 95.4879 76.7498 103.201 72.1608C109.397 68.453 116.226 62.0291 124.783 52.9543C133.343 43.8819 136.183 40.0991 136.998 38.96C137.818 37.8208 137.583 36.5655 134.836 36.8872C132.09 37.2089 111.511 42.1139 94.3091 52.9567L94.3164 52.9495Z" fill="url(#paint0_linear_2116_4552)"/>
<g style="mix-blend-mode:multiply" opacity="0.2">
<path d="M134.841 36.8824C132.376 37.1703 115.515 41.161 99.6452 49.8295C102.683 49.3941 105.547 48.1413 106.8 49.37C110.559 53.0536 97.2288 71.3144 80.3797 81.2115C63.146 91.3336 23.2243 114.287 23.2243 114.287C18.1255 116.848 11.0095 117.341 11.0095 117.341C11.0095 117.341 6.78876 116.34 4.757 115.007C3.06144 113.895 3.7653 111.798 4.04104 111.142L2.81231 113.854C2.81231 113.854 0.620908 116.942 0.161343 119.741C-0.298223 122.537 0.168599 123.161 2.82924 123.678C5.70515 124.237 13.8032 124.102 20.7305 120.79C26.1655 118.193 42.3615 108.934 42.3615 108.934C75.21 89.0061 95.4905 76.7475 103.203 72.1585C109.4 68.4507 116.228 62.0268 124.786 52.952C133.346 43.8796 136.185 40.0968 137.001 38.9576C137.821 37.8185 137.586 36.5632 134.838 36.8849L134.841 36.8824Z" fill="white"/>
</g>
<g style="mix-blend-mode:multiply">
<path d="M23.2241 114.284C23.2241 114.284 63.1459 91.3312 80.3796 81.2091C95.3977 72.3883 107.62 56.9258 107.436 51.0581C107.467 56.4542 95.3034 69.3673 80.3796 78.1326C63.1459 88.2546 24.7963 110.898 24.7963 110.898C18.0794 114.284 12.5332 114.115 12.5332 114.115C12.5332 114.115 6.78862 116.338 4.75928 115.007C6.79104 116.338 11.0118 117.341 11.0118 117.341C11.0118 117.341 18.1278 116.848 23.2266 114.287L23.2241 114.284Z" fill="#2539D3"/>
</g>
<path d="M72.4823 116.862C72.4823 119.015 70.973 119.888 69.1081 118.81C67.2433 117.736 65.7339 115.116 65.7339 112.964C65.7339 110.811 67.2457 109.94 69.1081 111.017C70.973 112.093 72.4823 114.71 72.4823 116.86V116.862Z" fill="url(#paint1_linear_2116_4552)"/>
<path d="M80.1133 105.333C79.3683 104.902 78.6814 104.786 78.1203 104.934C78.1203 104.934 72.5015 106.767 70.5737 107.952C68.1743 109.425 66.7835 110.75 66.7835 110.75C67.3882 110.434 68.2082 110.501 69.1079 111.019C70.9728 112.095 72.4821 114.712 72.4821 116.862C72.4821 118.156 71.9355 118.986 71.0962 119.211C71.0962 119.211 73.6117 118.667 75.1524 117.963C78.8943 116.258 82.6458 113.261 82.6458 113.261C83.1682 112.876 83.4827 112.161 83.4827 111.176C83.4827 109.024 81.9709 106.409 80.1085 105.333H80.1133Z" fill="url(#paint2_linear_2116_4552)"/>
<path d="M87.7204 103.32C87.302 103.076 86.9126 103.006 86.5957 103.083L79.6635 105.113C79.8111 105.176 79.9586 105.246 80.1134 105.335C81.9759 106.411 83.4876 109.028 83.4876 111.179C83.4876 111.413 83.4707 111.631 83.4344 111.832L89.058 107.981C89.4353 107.79 89.67 107.343 89.67 106.697C89.67 105.456 88.7968 103.942 87.7204 103.323V103.32Z" fill="url(#paint3_linear_2116_4552)"/>
<path style="mix-blend-mode:screen" opacity="0.5" d="M69.3281 110.501C68.6944 110.189 68.1042 110.044 67.5938 110.054C67.0689 110.482 66.7859 110.75 66.7859 110.75C67.3906 110.434 68.2106 110.501 69.1104 111.019C70.9753 112.095 72.4846 114.712 72.4846 116.862C72.4846 118.156 71.9379 118.986 71.0986 119.211C71.0986 119.211 71.6428 119.095 72.383 118.897C72.741 118.439 72.9756 117.784 73.0651 116.971C73.3263 114.603 71.3913 111.512 69.3281 110.501Z" fill="url(#paint4_linear_2116_4552)"/>
<path d="M69.0379 111.142C68.9799 111.106 68.9194 111.075 68.8614 111.046C68.8057 111.285 68.7743 111.549 68.7743 111.839C68.7743 113.873 70.2038 116.347 71.9671 117.363C72.0759 117.426 72.1823 117.479 72.2863 117.528C72.325 117.32 72.3444 117.099 72.3444 116.86C72.3444 114.758 70.8641 112.19 69.0404 111.137L69.0379 111.142Z" fill="#0C1EA4"/>
<path style="mix-blend-mode:screen" opacity="0.5" d="M69.4129 118.519C67.6592 117.506 66.237 115.041 66.237 113.014C66.237 111.104 67.5044 110.264 69.1202 111.026C69.1153 111.026 69.1129 111.021 69.1105 111.019C67.2456 109.943 65.7363 110.816 65.7363 112.966C65.7363 115.116 67.2481 117.738 69.1105 118.812C70.5521 119.646 71.7832 119.31 72.267 118.12C71.7494 119.032 70.6682 119.242 69.4153 118.522L69.4129 118.519Z" fill="url(#paint5_linear_2116_4552)"/>
<path d="M72.1775 115.077C71.8775 114.149 71.3793 113.234 70.7552 112.47C70.6416 112.601 70.5714 112.802 70.5714 113.058C70.5714 113.747 71.0576 114.587 71.655 114.932C71.8461 115.041 72.0227 115.087 72.1775 115.08V115.077Z" fill="url(#paint6_linear_2116_4552)"/>
<path d="M69.1081 111.019C68.5663 110.707 68.0535 110.559 67.6012 110.559V110.7C68.0462 110.7 68.53 110.85 69.0379 111.142C70.8617 112.194 72.342 114.761 72.342 116.865C72.342 118.265 71.6792 119.133 70.6174 119.133C70.1723 119.133 69.6886 118.986 69.1806 118.693C67.3593 117.641 65.8766 115.075 65.8766 112.968C65.8766 111.57 66.5369 110.702 67.6036 110.702V110.562C66.4982 110.562 65.7363 111.445 65.7363 112.968C65.7363 115.121 67.2481 117.74 69.1105 118.814C69.6523 119.129 70.1651 119.276 70.6174 119.276C71.7228 119.276 72.4847 118.391 72.4847 116.867C72.4847 114.717 70.9754 112.098 69.1105 111.024L69.1081 111.019Z" fill="#C6CCF7"/>
<g style="mix-blend-mode:multiply" opacity="0.2">
<path d="M76.275 115.508C76.275 113.012 74.5166 109.967 72.3566 108.719C71.7374 108.363 71.1472 108.182 70.5982 108.182C70.4361 108.182 70.2813 108.199 70.1386 108.228C70.0854 108.262 70.037 108.293 69.9862 108.327C70.1773 108.269 70.3805 108.238 70.6006 108.238C71.14 108.238 71.7229 108.416 72.3324 108.767C74.4754 110.006 76.2242 113.029 76.2242 115.508C76.2242 116.654 75.8517 117.506 75.2083 117.941C75.2857 117.905 75.3631 117.869 75.4405 117.832C75.9751 117.356 76.2798 116.553 76.2798 115.508H76.275Z" fill="#4356E3"/>
</g>
<g style="mix-blend-mode:multiply" opacity="0.2">
<path d="M80.4061 114.906C80.7302 114.439 80.9116 113.791 80.9116 113C80.9116 110.579 79.2064 107.626 77.1093 106.416C76.5118 106.07 75.9386 105.896 75.4041 105.896C75.3847 105.896 75.3678 105.896 75.3484 105.896C75.2904 105.918 75.2299 105.942 75.1694 105.964C75.2444 105.957 75.3242 105.952 75.4041 105.952C75.9265 105.952 76.4925 106.124 77.0827 106.465C79.1628 107.667 80.856 110.598 80.856 113C80.856 113.858 80.6407 114.543 80.2561 115.007C80.3093 114.973 80.3577 114.937 80.4061 114.903V114.906Z" fill="#4356E3"/>
</g>
<g style="mix-blend-mode:multiply" opacity="0.2">
<path d="M85.4977 110.419C85.6767 110.107 85.7758 109.701 85.7758 109.217C85.7758 107.546 84.5979 105.507 83.1515 104.672C82.854 104.501 82.5661 104.389 82.2904 104.341L82.1598 104.38C82.4646 104.414 82.7887 104.527 83.1225 104.721C84.5544 105.548 85.7202 107.563 85.7202 109.217C85.7202 109.749 85.5993 110.187 85.3792 110.501L85.5001 110.419H85.4977Z" fill="#4356E3"/>
</g>
<path d="M83.512 100.948C83.512 100.948 82.9798 100.258 82.5711 100.851C82.5711 100.851 76.217 105.045 74.3593 106.68C73.6023 107.347 72.9347 108.138 73.2008 108.404C73.2008 108.404 73.4668 108.458 74.2191 108.085C74.9713 107.713 80.4256 105.529 80.4256 105.529C80.7473 105.749 81.0569 106.015 81.3447 106.312C81.3447 106.312 86.2839 104.501 87.3022 103.765L89.0558 101.543C85.6356 101.173 83.5095 100.945 83.5095 100.945L83.512 100.948Z" fill="#C6CCF7"/>
<g style="mix-blend-mode:screen" opacity="0.5">
<path d="M74.8431 106.876C76.6983 105.241 83.512 100.948 83.512 100.948C83.512 100.948 82.9798 100.258 82.5711 100.851C82.5711 100.851 76.217 105.045 74.3593 106.68C73.6023 107.347 72.9347 108.138 73.2008 108.404C73.2008 108.404 73.3241 108.429 73.641 108.327C73.7401 107.962 74.2626 107.384 74.8431 106.873V106.876Z" fill="url(#paint7_linear_2116_4552)"/>
</g>
<path d="M25.2995 88.8278C25.2995 90.9804 23.7878 91.8511 21.9253 90.7748C20.0605 89.7009 18.5511 87.0839 18.5511 84.9313C18.5511 82.7787 20.0605 81.908 21.9253 82.9843C23.7878 84.0606 25.2995 86.6776 25.2995 88.8302V88.8278Z" fill="url(#paint8_linear_2116_4552)"/>
<path d="M32.9305 77.2981C32.1856 76.8676 31.4986 76.7491 30.9399 76.899C30.9399 76.899 25.3211 78.73 23.3934 79.9151C20.9915 81.3881 19.6031 82.7135 19.6031 82.7135C20.2103 82.399 21.0278 82.4619 21.9276 82.9819C23.79 84.0582 25.3018 86.6752 25.3018 88.8278C25.3018 90.1218 24.7551 90.9514 23.9158 91.1739C23.9158 91.1739 26.4337 90.6297 27.9745 89.9259C31.7187 88.2207 35.4678 85.224 35.4678 85.224C35.9903 84.8395 36.3047 84.1235 36.3047 83.1392C36.3047 80.989 34.7954 78.3696 32.9305 77.2957V77.2981Z" fill="url(#paint9_linear_2116_4552)"/>
<path d="M40.5376 75.2808C40.1192 75.039 39.7298 74.9688 39.4129 75.0438L32.4807 77.0731C32.6283 77.1359 32.7782 77.2061 32.933 77.2956C34.7955 78.3695 36.3072 80.9864 36.3072 83.139C36.3072 83.3737 36.2879 83.5913 36.254 83.7945L41.8776 79.9416C42.2549 79.7481 42.4896 79.3031 42.4896 78.6573C42.4896 77.4165 41.6164 75.9024 40.54 75.2808H40.5376Z" fill="url(#paint10_linear_2116_4552)"/>
<path style="mix-blend-mode:screen" opacity="0.5" d="M22.1453 82.4643C21.5116 82.1522 20.9214 82.0071 20.411 82.0168C19.8837 82.4449 19.6031 82.7134 19.6031 82.7134C20.2103 82.399 21.0278 82.4618 21.9276 82.9819C23.79 84.0582 25.3018 86.6751 25.3018 88.8277C25.3018 90.1217 24.7551 90.9513 23.9158 91.1738C23.9158 91.1738 24.4625 91.0553 25.2002 90.857C25.5582 90.3999 25.7952 89.7468 25.8871 88.9342C26.1483 86.5663 24.2109 83.4753 22.1477 82.4618L22.1453 82.4643Z" fill="url(#paint11_linear_2116_4552)"/>
<path d="M21.8551 83.1052C21.7971 83.0714 21.7366 83.0375 21.6785 83.0085C21.6229 83.2503 21.5891 83.5116 21.5891 83.8018C21.5891 85.8359 23.0185 88.3126 24.7818 89.3284C24.8907 89.3913 24.9947 89.4445 25.1035 89.4929C25.1398 89.2873 25.1616 89.0648 25.1616 88.8278C25.1616 86.7235 23.6789 84.1574 21.8551 83.1052Z" fill="#0C1EA4"/>
<path style="mix-blend-mode:screen" opacity="0.5" d="M22.2325 90.4821C20.4765 89.4687 19.0543 87.0041 19.0543 84.9773C19.0543 83.0665 20.3193 82.2272 21.9374 82.9891C21.9326 82.9891 21.9302 82.9843 21.9253 82.9819C20.0605 81.9056 18.5511 82.7787 18.5511 84.9289C18.5511 87.0791 20.0605 89.6985 21.9253 90.7723C23.3693 91.6068 24.5981 91.2706 25.0794 90.0806C24.5618 90.9924 23.4806 91.2004 22.2301 90.4797L22.2325 90.4821Z" fill="url(#paint12_linear_2116_4552)"/>
<path d="M24.9946 87.0429C24.6971 86.1141 24.1989 85.1998 23.5724 84.4355C23.4587 84.5662 23.391 84.7669 23.391 85.0233C23.391 85.715 23.8772 86.5519 24.4746 86.8977C24.6633 87.0066 24.8423 87.0549 24.9946 87.0453V87.0429Z" fill="url(#paint13_linear_2116_4552)"/>
<path d="M21.9253 82.9843C21.3835 82.6699 20.8731 82.5224 20.4184 82.5224V82.6651C20.8634 82.6651 21.3448 82.8126 21.8551 83.1053C23.6789 84.1574 25.1616 86.7236 25.1616 88.8278C25.1616 90.2258 24.4989 91.0965 23.4346 91.0965C22.9895 91.0965 22.5034 90.949 21.9979 90.6563C20.1765 89.6042 18.6938 87.0356 18.6938 84.9313C18.6938 83.5334 19.3541 82.6651 20.4208 82.6651V82.5224C19.313 82.5224 18.5535 83.4052 18.5535 84.9313C18.5535 87.084 20.0628 89.7009 21.9277 90.7748C22.4695 91.0892 22.9799 91.2368 23.4346 91.2368C24.54 91.2368 25.3019 90.354 25.3019 88.8278C25.3019 86.6752 23.7902 84.0606 21.9277 82.9819L21.9253 82.9843Z" fill="#C6CCF7"/>
<g style="mix-blend-mode:multiply" opacity="0.2">
<path d="M29.0919 87.4709C29.0919 84.9749 27.3335 81.9298 25.1735 80.6818C24.5543 80.3238 23.9641 80.1448 23.4127 80.1448C23.253 80.1448 23.0982 80.1593 22.9531 80.1908C22.9023 80.2246 22.8515 80.2561 22.8007 80.2899C22.9894 80.2343 23.195 80.2005 23.4127 80.2005C23.9545 80.2005 24.535 80.3794 25.1445 80.7301C27.29 81.9685 29.0363 84.9918 29.0363 87.4709C29.0363 88.6174 28.6662 89.4687 28.0228 89.9041C28.1002 89.8678 28.1776 89.8315 28.2526 89.7953C28.7896 89.3188 29.0919 88.5134 29.0919 87.4685V87.4709Z" fill="#4356E3"/>
</g>
<g style="mix-blend-mode:multiply" opacity="0.2">
<path d="M33.2233 86.8687C33.5498 86.4019 33.7288 85.7537 33.7288 84.9652C33.7288 82.5441 32.0236 79.591 29.9265 78.3816C29.3291 78.0358 28.7558 77.8616 28.2213 77.8616C28.2044 77.8616 28.185 77.8616 28.1657 77.8641C28.1076 77.8858 28.0447 77.9076 27.9843 77.9294C28.0617 77.9221 28.1391 77.9173 28.2213 77.9173C28.7437 77.9173 29.3097 78.089 29.8999 78.4324C31.9801 79.6321 33.6732 82.5635 33.6732 84.9652C33.6732 85.8214 33.4555 86.5083 33.0733 86.9727C33.1241 86.9364 33.1749 86.905 33.2233 86.8687Z" fill="#4356E3"/>
</g>
<g style="mix-blend-mode:multiply" opacity="0.2">
<path d="M38.3147 82.3821C38.4937 82.0701 38.5928 81.6638 38.5928 81.1825C38.5928 79.5112 37.4149 77.4747 35.9685 76.6378C35.6685 76.4661 35.3807 76.3549 35.1074 76.3065L34.9744 76.3452C35.2791 76.379 35.6032 76.4927 35.9395 76.6862C37.3689 77.5134 38.5372 79.5281 38.5372 81.1825C38.5372 81.7146 38.4163 82.1524 38.1962 82.4668L38.3147 82.3821Z" fill="#4356E3"/>
</g>
<path d="M36.329 72.9131C36.329 72.9131 35.7969 72.2238 35.3881 72.8187C35.3881 72.8187 29.0364 77.0103 27.1764 78.6477C26.4217 79.3177 25.7517 80.1037 26.0178 80.3722C26.0178 80.3722 26.2839 80.4254 27.0361 80.0554C27.7883 79.6829 33.2451 77.4988 33.2451 77.4988C33.5668 77.7189 33.874 77.985 34.1618 78.2825C34.1618 78.2825 39.1009 76.4709 40.1192 75.7356L41.8728 73.5129C38.4527 73.1453 36.3266 72.9155 36.3266 72.9155L36.329 72.9131Z" fill="#C6CCF7"/>
<g style="mix-blend-mode:screen" opacity="0.5">
<path d="M27.6602 78.8412C29.5153 77.2038 36.329 72.9131 36.329 72.9131C36.329 72.9131 35.7969 72.2238 35.3881 72.8187C35.3881 72.8187 29.0364 77.0103 27.1764 78.6477C26.4217 79.3177 25.7517 80.1037 26.0178 80.3722C26.0178 80.3722 26.1412 80.3964 26.458 80.2948C26.5596 79.9296 27.0821 79.3515 27.6602 78.8412Z" fill="url(#paint14_linear_2116_4552)"/>
</g>
<path d="M107.136 48.9007C107.136 48.9007 106.824 49.5247 108.164 49.2127C109.504 48.9007 122.318 43.1008 124.938 41.7294C127.557 40.358 131.144 37.654 131.144 37.654L141.185 0.172089C141.185 0.172089 136.945 2.54237 135.917 3.22685C134.889 3.91133 133.795 5.56327 132.954 7.1233C132.112 8.68092 111.485 44.1916 111.485 44.1916C111.485 44.1916 107.636 48.4025 107.138 48.9007H107.136Z" fill="url(#paint15_linear_2116_4552)"/>
<g style="mix-blend-mode:multiply">
<path d="M135.914 3.22685C134.886 3.91133 133.793 5.56327 132.951 7.1233C132.11 8.68092 111.482 44.1916 111.482 44.1916C111.482 44.1916 107.634 48.4025 107.136 48.9007C107.136 48.9007 106.824 49.5247 108.164 49.2127C109.504 48.9007 122.318 43.1008 124.938 41.7294C127.557 40.358 131.144 37.654 131.144 37.654L141.185 0.172089C141.185 0.172089 136.945 2.54237 135.917 3.22685H135.914ZM127.647 34.234C125.378 35.5449 123.535 34.4807 123.535 31.8589C123.535 29.2371 125.378 26.0493 127.647 24.736C129.918 23.425 131.761 24.4868 131.761 27.1111C131.761 29.7353 129.918 32.9231 127.647 34.234Z" fill="#7787FF"/>
</g>
<g style="mix-blend-mode:multiply">
<path d="M124.229 31.4936C124.229 31.0631 125.228 30.2239 126.583 29.4354L126.902 28.3663C126.866 28.3905 126.827 28.4147 126.788 28.4389C126.726 28.4752 126.667 28.5042 126.612 28.5284V28.0398C126.667 28.0011 126.726 27.9648 126.788 27.9286C126.892 27.8657 126.992 27.8221 127.076 27.7931L127.821 25.3261L128.394 24.9947L128.155 28.6082C128.661 28.3591 129.115 28.1486 129.493 27.9987L130.296 26.0686L130.644 25.8679L130.284 27.7496C130.443 27.7278 130.535 27.7592 130.535 27.8536C130.535 27.9479 130.45 28.0713 130.3 28.2309L130.644 29.6313L130.296 29.832L129.534 28.8815C129.149 29.1693 128.68 29.4958 128.157 29.8417L128.394 33.1335L127.821 33.4648L127.03 31.7549C126.955 31.8129 126.873 31.8685 126.788 31.9193C126.726 31.9556 126.667 31.9846 126.612 32.0088V31.5203C126.667 31.4816 126.726 31.4429 126.788 31.4066C126.81 31.3945 126.83 31.3824 126.851 31.3703L126.597 30.8188C125.238 31.5831 124.227 31.8589 124.227 31.4912L124.229 31.4936Z" fill="#4356E3"/>
</g>
<g style="mix-blend-mode:screen" opacity="0.3">
<path d="M132.954 7.1233C132.112 8.68092 111.485 44.1916 111.485 44.1916C111.485 44.1916 107.637 48.4025 107.138 48.9007C107.138 48.9007 106.826 49.5247 108.166 49.2127C108.367 49.1644 108.822 48.9951 109.463 48.7387C111.095 46.7554 112.689 44.4335 112.689 44.4335C112.689 44.4335 134.134 6.40013 135.07 4.93926C135.834 3.74928 139.603 1.6644 140.982 0.926709L141.185 0.172089C141.185 0.172089 136.945 2.54237 135.917 3.22685C134.889 3.91133 133.795 5.56327 132.954 7.1233Z" fill="white"/>
</g>
<g style="mix-blend-mode:multiply" opacity="0.2">
<path d="M137.958 3.84595L137.949 3.85321L126.607 39.1124L126.585 39.1777L131.433 36.5849L131.452 36.5099L126.68 39.064L132.32 21.536L135.9 19.901L135.919 19.8333L132.342 21.4658L137.997 3.88949L140.588 2.39959L140.607 2.32462L137.958 3.84595Z" fill="#4356E3"/>
</g>
<g style="mix-blend-mode:multiply" opacity="0.2">
<path d="M123.061 42.6532L137.723 2.83731L137.67 2.81796L129.103 26.0806L122.19 27.5608L122.202 27.6164L129.084 26.1411L122.988 42.6871C123.013 42.675 123.037 42.6653 123.059 42.6508L123.061 42.6532Z" fill="#4356E3"/>
</g>
<path d="M58.4073 68.5425L60.1101 70.3154C61.3219 69.5729 61.8129 68.1435 61.8129 68.1435C59.6336 67.9935 58.4073 68.5401 58.4073 68.5401V68.5425Z" fill="url(#paint16_linear_2116_4552)"/>
<path d="M95.7822 90.4677L97.485 92.243C98.6968 91.5005 99.1854 90.071 99.1854 90.071C97.0061 89.9211 95.7822 90.4677 95.7822 90.4677Z" fill="url(#paint17_linear_2116_4552)"/>
<path d="M114.934 95.8781L116.634 97.6534C117.849 96.9109 118.337 95.4815 118.337 95.4815C116.158 95.3291 114.934 95.8781 114.934 95.8781Z" fill="url(#paint18_linear_2116_4552)"/>
<path d="M46.8312 55.3368L48.5316 57.1096C49.7459 56.3671 50.2344 54.9377 50.2344 54.9377C48.0551 54.7877 46.8312 55.3368 46.8312 55.3368Z" fill="url(#paint19_linear_2116_4552)"/>
<path d="M59.9434 101.405C59.9434 101.405 58.9227 101.376 58.0084 101.552C57.1981 101.707 57.0482 101.777 55.3599 102.346C53.5119 102.97 52.513 103.004 52.3679 102.713C52.2179 102.423 54.6318 99.7021 56.5088 98.1518C58.3882 96.599 67.5408 89.0891 78.0237 84.3147C88.5042 79.5402 90.4683 79.2645 90.7295 79.6612C90.9907 80.0554 87.0699 84.883 85.176 86.1238C85.176 86.1238 84.6269 86.4406 85.355 86.6366C86.0855 86.8325 106.691 93.6724 106.691 93.6724L163.975 105.122C163.975 105.122 164.352 105.321 163.184 106.203C162.013 107.086 158.9 107.93 157.495 107.897C156.089 107.86 59.9434 101.407 59.9434 101.407V101.405Z" fill="url(#paint20_linear_2116_4552)"/>
<path d="M121.479 53.1938C121.479 53.1938 120.804 54.4104 121.191 54.6353C121.576 54.8602 122.935 53.4187 124.147 53.3195C125.359 53.2252 160.678 56.1083 160.678 56.1083C160.678 56.1083 161.865 56.0768 162.954 55.4673C164.042 54.8578 166.896 53.0317 166.896 53.0317L135.508 40.9094C135.508 40.9094 126 47.0093 121.482 53.1938H121.479Z" fill="url(#paint21_linear_2116_4552)"/>
<path d="M120.396 28.8427L111.381 20.0533C111.381 20.0533 108.227 22.4018 107.658 22.8879C107.087 23.3765 107.107 24.3416 107.107 24.3416L111.589 44.0125C112.266 42.8491 116.131 36.193 120.396 28.8427Z" fill="url(#paint22_linear_2116_4552)"/>
<g style="mix-blend-mode:multiply" opacity="0.2">
<path d="M159.839 56.0406L165.145 52.3594L165.082 52.3353L163.341 53.5446L148.521 48.7823L150.56 46.7264L150.502 46.7046L148.463 48.7629L133.655 44.0054L137.001 41.49L136.94 41.4658L133.58 43.9933L133.537 44.0248L163.288 53.5833L160.859 55.2691L124.505 49.711C124.505 49.711 124.488 49.7279 124.481 49.7352L124.476 49.7618L160.792 55.315L159.751 56.0358C159.781 56.0382 159.81 56.0406 159.839 56.0431V56.0406Z" fill="#4356E3"/>
</g>
<g style="mix-blend-mode:multiply" opacity="0.2">
<path d="M118.804 31.5807C118.816 31.5638 118.824 31.5469 118.833 31.5299L110.958 21.761L112.196 20.8516L112.155 20.8105L107.141 24.4965L107.153 24.557L108.162 23.8144L113.379 40.924C113.391 40.9022 113.406 40.8805 113.418 40.8587L108.213 23.7806L110.917 21.7948L118.807 31.5807H118.804Z" fill="#4356E3"/>
</g>
<path style="mix-blend-mode:multiply" d="M166.207 52.7657C165.249 53.4405 161.948 55.7019 160.794 55.7019C159.435 55.7019 125.63 52.577 125.63 52.577C125.63 52.577 123.318 52.2698 121.615 53.01C121.569 53.0704 121.525 53.1285 121.479 53.1914C121.479 53.1914 120.804 54.4079 121.191 54.6329C121.576 54.8578 122.935 53.4163 124.147 53.3171C125.359 53.2228 160.678 56.1058 160.678 56.1058C160.678 56.1058 161.865 56.0744 162.954 55.4649C164.042 54.8554 166.896 53.0293 166.896 53.0293L166.209 52.7633L166.207 52.7657Z" fill="url(#paint23_linear_2116_4552)"/>
<path style="mix-blend-mode:multiply" d="M112 43.3015C111.279 40.2902 108.007 26.5934 107.653 25.1494C107.407 24.1384 107.547 23.3282 107.687 22.859C107.675 22.8687 107.663 22.8783 107.653 22.888C107.083 23.3766 107.102 24.3416 107.102 24.3416L111.584 44.0125C111.671 43.8626 111.811 43.6231 111.998 43.3015H112Z" fill="url(#paint24_linear_2116_4552)"/>
<g style="mix-blend-mode:multiply" opacity="0.2">
<path d="M157.337 107.884L162.407 104.805L162.325 104.791L159.657 106.409L126.687 101.971L128.673 99.603L158.583 105.284H158.595L159.783 104.278L159.713 104.266L158.581 105.226L142.351 102.145L143.575 101.04L143.505 101.025L142.281 102.13L122.916 98.4517L124.036 97.1335L123.975 97.1214L122.853 98.4396L105.697 95.1792L107.136 93.7547L107.071 93.7426L105.583 95.2155L128.61 99.5909L126.619 101.961L87.902 96.7514L95.0083 92.7848L103.418 95.2228L103.43 95.2276L106.19 93.5007C106.168 93.4934 106.142 93.4862 106.12 93.4789L103.423 95.1696L79.6491 88.274C82.6145 87.0622 84.7479 86.3874 84.9874 86.3125C84.997 86.2858 85.0115 86.2641 85.0285 86.2423C85.0164 86.2447 85.0043 86.2496 84.9922 86.252C84.9148 86.2738 77.2376 88.6489 70.1386 92.8985C64.3456 96.3644 60.807 99.453 58.976 101.429C59.005 101.424 59.034 101.419 59.0654 101.417C59.6097 100.832 60.2434 100.205 61.102 99.4433L158.092 107.355L157.233 107.877C157.27 107.877 157.301 107.88 157.33 107.882L157.337 107.884ZM61.1674 99.395C63.2112 97.5882 66.1645 95.3461 70.1724 92.9492C73.4498 90.9877 76.8506 89.4253 79.5693 88.3103L94.9357 92.7654L80.6142 100.757L80.6408 100.805L87.8246 96.7973L159.582 106.453L158.177 107.306L61.1649 99.3925L61.1674 99.395Z" fill="#4356E3"/>
</g>
<path style="mix-blend-mode:multiply" d="M158.179 107.309C155.976 107.36 61.1672 99.3949 61.1672 99.3949C61.1672 99.3949 60.1489 100.041 59.058 101.424C59.5224 101.393 59.9433 101.405 59.9433 101.405C59.9433 101.405 156.089 107.858 157.495 107.894C158.677 107.923 161.067 107.331 162.492 106.617C161.483 106.873 159.671 107.277 158.177 107.311L158.179 107.309Z" fill="url(#paint25_linear_2116_4552)"/>
<path d="M63.3998 71.44L53.1974 61.5429L28.5502 24.1191C28.5502 24.1191 26.8837 23.7418 25.0333 24.7358C23.1806 25.7299 23.0185 26.7481 23.0185 26.7481L38.1987 86.5107L63.3998 71.44Z" fill="url(#paint26_linear_2116_4552)"/>
<path style="mix-blend-mode:multiply" d="M39.4444 85.7658L23.8941 25.5098C23.1104 26.1967 23.0209 26.7482 23.0209 26.7482L38.2011 86.5107L39.4444 85.7658Z" fill="url(#paint27_linear_2116_4552)"/>
<g style="mix-blend-mode:multiply" opacity="0.2">
<path d="M24.1747 26.9176L39.8338 85.5336L39.8822 85.5046L36.8103 74.0039L54.6197 68.9417L58.9275 74.1152L58.9759 74.0862L49.4556 62.6532L53.3861 61.7293L53.3402 61.6833L49.3541 62.6217L54.581 68.8957L44.3085 71.815L33.8232 45.0236L39.8435 44.8809L49.8499 61.1584L49.8596 61.173L52.7669 60.8876L52.7331 60.8343L49.8934 61.1101L43.1644 50.1681L45.3752 49.6577L45.3413 49.6094L43.133 50.1197L33.8304 34.9862L35.4462 34.5823L35.4123 34.5315L33.799 34.9354L28.2237 25.8703L29.4573 25.4905L29.4258 25.4422L28.1415 25.8364L39.812 44.8229L33.8038 44.9656L26.3613 25.9453C27.4304 25.522 28.4293 25.1906 29.1187 24.9754L29.0872 24.927C27.7037 25.3575 25.0914 26.2524 23.1854 27.394L23.1999 27.4521C23.5095 27.2658 23.8361 27.0869 24.1747 26.9127V26.9176ZM26.3081 25.967L44.2553 71.8296L36.7982 73.9507L24.2279 26.891C24.9027 26.5523 25.6187 26.2403 26.3105 25.967H26.3081Z" fill="#4356E3"/>
</g>
<g style="mix-blend-mode:multiply">
<path d="M85.0309 86.2447C85.0914 86.1721 85.1784 86.1189 85.1784 86.1189C87.0699 84.8782 90.9907 80.0505 90.7319 79.6563C90.4707 79.262 88.5067 79.5353 78.0262 84.3098C67.5432 89.0842 58.3906 96.5965 56.5112 98.1469C54.6319 99.6997 52.2203 102.418 52.3703 102.708C52.5154 102.999 53.5144 102.965 55.3623 102.341C57.0506 101.772 57.2006 101.705 58.0109 101.548C58.3664 101.477 58.7389 101.441 59.0606 101.422C59.0606 101.422 62.8605 97.2423 70.1748 92.9468C77.4868 88.6464 83.7344 86.7115 85.0333 86.2423L85.0309 86.2447Z" fill="#8492FF"/>
</g>
<path d="M11.0096 117.339L12.9519 116.055L12.531 114.115C12.531 114.115 6.00035 114.797 5.03042 113.904C4.32414 113.256 4.27093 111.488 4.29512 110.579L2.85112 113.764C2.79307 114.959 2.88498 116.35 3.56223 116.787C4.82241 117.6 11.0096 117.339 11.0096 117.339Z" fill="#AEB1C4"/>
<path d="M28.9132 110.318C28.9204 110.409 28.86 110.523 28.7801 110.569L28.2432 110.881C28.1658 110.927 28.0932 110.888 28.086 110.796L27.8925 109.727C27.8852 109.635 27.9433 109.522 28.0255 109.476L28.5649 109.166C28.6447 109.118 28.7148 109.157 28.7221 109.248L28.918 110.318H28.9132Z" fill="#001297"/>
<path d="M30.7999 109.217C30.8047 109.311 30.7467 109.423 30.6668 109.466L30.1299 109.778C30.0501 109.824 29.9799 109.785 29.9727 109.694L29.7792 108.625C29.7719 108.533 29.8324 108.419 29.9122 108.373L30.4492 108.063C30.529 108.017 30.5991 108.054 30.6064 108.146L30.8023 109.215L30.7999 109.217Z" fill="#001297"/>
<path d="M32.6841 108.119C32.6914 108.211 32.6309 108.325 32.5511 108.37L32.0141 108.682C31.9343 108.728 31.8642 108.69 31.8569 108.598L31.661 107.529C31.6561 107.437 31.7142 107.323 31.794 107.28L32.331 106.968C32.4108 106.922 32.4809 106.96 32.4882 107.052L32.6817 108.121L32.6841 108.119Z" fill="#001297"/>
<path d="M34.5706 107.016C34.5803 107.108 34.5198 107.222 34.44 107.268L33.9006 107.58C33.8208 107.626 33.7506 107.587 33.7434 107.495L33.5499 106.426C33.5426 106.334 33.6007 106.223 33.6829 106.174L34.2199 105.862C34.2997 105.816 34.3698 105.853 34.3771 105.947L34.5706 107.014V107.016Z" fill="#001297"/>
<path d="M36.4575 105.92C36.4648 106.012 36.4067 106.124 36.3245 106.172L35.7875 106.482C35.7077 106.527 35.6375 106.491 35.6303 106.399L35.4344 105.333C35.4271 105.241 35.4876 105.127 35.5674 105.081L36.1044 104.769C36.1866 104.723 36.2543 104.762 36.264 104.851L36.4575 105.923V105.92Z" fill="#001297"/>
<path d="M38.3416 104.82C38.3489 104.912 38.2908 105.025 38.2086 105.071L37.6716 105.381C37.5918 105.427 37.5193 105.388 37.5144 105.296L37.3209 104.227C37.3137 104.135 37.3717 104.022 37.4515 103.976L37.9885 103.666C38.0683 103.618 38.1385 103.657 38.1457 103.751L38.3392 104.82H38.3416Z" fill="#001297"/>
<path d="M40.2307 103.719C40.2355 103.811 40.1775 103.923 40.0977 103.969L39.5607 104.281C39.4785 104.327 39.4107 104.288 39.4035 104.198L39.2076 103.127C39.2027 103.035 39.2608 102.924 39.3406 102.878L39.88 102.568C39.9574 102.522 40.0299 102.559 40.0372 102.65L40.2331 103.719H40.2307Z" fill="#001297"/>
<path d="M42.1149 102.621C42.1222 102.713 42.0641 102.827 41.9843 102.873L41.4449 103.183C41.3651 103.228 41.2926 103.192 41.2877 103.098L41.0942 102.029C41.087 101.937 41.1474 101.823 41.2248 101.777L41.7618 101.465C41.844 101.419 41.9142 101.456 41.9214 101.55L42.1149 102.619V102.621Z" fill="#001297"/>
<path d="M44.0015 101.521C44.0088 101.613 43.9483 101.727 43.8685 101.772L43.3291 102.084C43.2493 102.13 43.1792 102.094 43.1719 102.002L42.976 100.933C42.9712 100.841 43.0292 100.728 43.109 100.682L43.646 100.372C43.7282 100.326 43.7984 100.362 43.8032 100.457L43.9991 101.526L44.0015 101.521Z" fill="#001297"/>
<path d="M49.6589 98.2218C49.6661 98.3113 49.6056 98.425 49.5258 98.4709L48.9889 98.7805C48.909 98.8265 48.8365 98.7902 48.8316 98.6983L48.6357 97.6292C48.6285 97.5373 48.6889 97.4237 48.7688 97.3801L49.3057 97.0705C49.388 97.0246 49.4557 97.0609 49.4654 97.1528L49.6589 98.2242V98.2218Z" fill="#001297"/>
<path d="M51.5433 97.1213C51.5506 97.2132 51.4901 97.3269 51.4103 97.3704L50.8709 97.68C50.7935 97.726 50.7209 97.6897 50.7137 97.5954L50.5202 96.5263C50.5153 96.4344 50.5734 96.3207 50.6532 96.2748L51.1902 95.9652C51.27 95.9192 51.3401 95.9555 51.3474 96.0474L51.5409 97.1165L51.5433 97.1213Z" fill="#001297"/>
<path d="M53.4299 96.0232C53.4372 96.1151 53.3767 96.2264 53.2969 96.2724L52.7599 96.5844C52.6801 96.6303 52.61 96.5916 52.6051 96.5021L52.4092 95.4307C52.402 95.3388 52.4624 95.2275 52.5423 95.1815L53.0792 94.8695C53.159 94.8236 53.2292 94.8599 53.2364 94.9542L53.4299 96.0232Z" fill="#001297"/>
<path d="M55.3141 94.9228C55.3237 95.0147 55.2633 95.1284 55.1834 95.1743L54.6465 95.4839C54.5667 95.5299 54.4965 95.4936 54.4893 95.4017L54.2958 94.3326C54.2885 94.2407 54.349 94.127 54.4288 94.0835L54.9682 93.7715C55.048 93.7255 55.1181 93.7618 55.1254 93.8537L55.3189 94.9228H55.3141Z" fill="#001297"/>
<path d="M57.2032 93.8223C57.208 93.9142 57.15 94.0279 57.0702 94.0739L56.5332 94.3835C56.4534 94.4294 56.3832 94.3931 56.376 94.2988L56.1825 93.2322C56.1752 93.1403 56.2357 93.0266 56.3131 92.9806L56.8525 92.6686C56.9323 92.6227 57.0024 92.6614 57.0097 92.7533L57.2056 93.8223H57.2032Z" fill="#001297"/>
<path d="M59.0873 92.7243C59.097 92.8162 59.0341 92.9274 58.9567 92.9758L58.4197 93.2854C58.3399 93.3314 58.2698 93.2927 58.2625 93.2007L58.069 92.1317C58.0618 92.0398 58.1222 91.9285 58.202 91.8826L58.739 91.5706C58.8188 91.5246 58.889 91.5609 58.8986 91.6552L59.0897 92.7243H59.0873Z" fill="#001297"/>
<path d="M60.9738 91.6238C60.9811 91.7157 60.923 91.8269 60.8432 91.8753L60.3062 92.1849C60.2264 92.2309 60.1539 92.1946 60.1466 92.1002L59.9531 91.0288C59.9458 90.9393 60.0063 90.8256 60.0837 90.7797L60.6207 90.4677C60.7005 90.4217 60.7706 90.458 60.7779 90.5499L60.9714 91.6189L60.9738 91.6238Z" fill="#001297"/>
<path d="M62.8582 90.5233C62.8654 90.6152 62.805 90.7288 62.7276 90.7748L62.1906 91.0844C62.1108 91.1303 62.0382 91.0941 62.0334 90.9997L61.8399 89.9331C61.8326 89.8412 61.8931 89.7275 61.9729 89.6816L62.5099 89.3696C62.5897 89.3236 62.6598 89.3599 62.6671 89.4542L62.8606 90.5233H62.8582Z" fill="#001297"/>
<path d="M64.7449 89.4252C64.7522 89.5171 64.6917 89.6307 64.6119 89.6743L64.0725 89.9863C63.9927 90.0322 63.9225 89.996 63.9153 89.904L63.7218 88.835C63.7121 88.7431 63.7726 88.6318 63.8524 88.5859L64.3894 88.2739C64.4692 88.2279 64.5417 88.2666 64.5466 88.3585L64.7425 89.4276L64.7449 89.4252Z" fill="#001297"/>
<path d="M66.6312 88.3247C66.6385 88.4166 66.578 88.5303 66.4982 88.5762L65.9612 88.8858C65.8814 88.9318 65.8113 88.8955 65.804 88.8011L65.6105 87.7321C65.6033 87.6402 65.6637 87.5289 65.7435 87.483L66.2829 87.171C66.3628 87.125 66.4329 87.1637 66.4401 87.2556L66.6336 88.3247H66.6312Z" fill="#001297"/>
<path d="M68.5181 87.2266C68.5254 87.3185 68.4649 87.4322 68.3851 87.4781L67.8457 87.7877C67.7659 87.8337 67.6958 87.7974 67.6885 87.7031L67.4926 86.634C67.4878 86.5421 67.5458 86.4285 67.6256 86.3849L68.1626 86.0753C68.2424 86.027 68.3125 86.0657 68.3198 86.1576L68.5133 87.2266H68.5181Z" fill="#001297"/>
<path d="M70.4047 86.1262C70.412 86.2181 70.3515 86.3294 70.2717 86.3753L69.7347 86.6849C69.6549 86.7308 69.5824 86.6946 69.5775 86.6027L69.384 85.5336C69.3768 85.4441 69.4372 85.328 69.5171 85.2845L70.0564 84.9749C70.1362 84.9289 70.2064 84.9652 70.2137 85.0571L70.4072 86.1262H70.4047Z" fill="#001297"/>
<path d="M72.2888 85.0281C72.296 85.12 72.2356 85.2312 72.1533 85.2796L71.6164 85.5892C71.5365 85.6352 71.4664 85.5989 71.4591 85.5045L71.2632 84.4355C71.2584 84.3436 71.3164 84.2323 71.3938 84.1864L71.9332 83.8744C72.013 83.8284 72.0832 83.8671 72.0904 83.959L72.2839 85.0281H72.2888Z" fill="#001297"/>
<path d="M74.1756 83.9276C74.1829 84.0195 74.1224 84.1308 74.0426 84.1792L73.5056 84.4887C73.4258 84.5347 73.3556 84.4984 73.3484 84.4041L73.1549 83.3351C73.1476 83.2431 73.2081 83.1295 73.2879 83.0835L73.8249 82.7739C73.9047 82.7255 73.9748 82.7642 73.9821 82.8562L74.1756 83.9252V83.9276Z" fill="#001297"/>
<path d="M76.0623 82.8271C76.0696 82.919 76.0091 83.0326 75.9293 83.0762L75.3923 83.3858C75.3125 83.4317 75.2423 83.3954 75.2351 83.3035L75.0392 82.2345C75.0343 82.1426 75.0924 82.0289 75.1722 81.983L75.7092 81.6709C75.789 81.625 75.8591 81.6613 75.8664 81.7532L76.0599 82.8222L76.0623 82.8271Z" fill="#001297"/>
<path d="M77.9462 81.7291C77.9535 81.821 77.893 81.9322 77.8156 81.9782L77.2762 82.2878C77.1964 82.3337 77.1263 82.295 77.119 82.2031L76.9255 81.1341C76.9183 81.0422 76.9787 80.9285 77.0585 80.8825L77.5955 80.5705C77.6753 80.5246 77.7455 80.5633 77.7552 80.6552L77.9487 81.7242L77.9462 81.7291Z" fill="#001297"/>
<path d="M79.8328 80.6286C79.8401 80.7205 79.782 80.8341 79.6998 80.8801L79.1628 81.1921C79.083 81.2381 79.0128 81.2018 79.0056 81.1099L78.8121 80.0408C78.8048 79.9489 78.8629 79.8377 78.9427 79.7917L79.4797 79.4797C79.5595 79.4337 79.6296 79.47 79.6369 79.5619L79.8328 80.631V80.6286Z" fill="#001297"/>
<path d="M81.7196 79.528C81.7268 79.6199 81.6688 79.7336 81.5865 79.7796L81.0496 80.0891C80.9697 80.1351 80.8996 80.0988 80.8923 80.0045L80.6988 78.9354C80.6892 78.8435 80.7496 78.7299 80.8294 78.6839L81.3688 78.3743C81.4487 78.3259 81.5188 78.3646 81.5261 78.459L81.722 79.528H81.7196Z" fill="#001297"/>
<path d="M83.6063 78.43C83.6136 78.5195 83.5531 78.6332 83.4733 78.6792L82.9363 78.9912C82.8565 79.0371 82.7864 78.9984 82.7791 78.9065L82.5856 77.8375C82.5784 77.7456 82.6388 77.6319 82.7186 77.5859L83.2556 77.2764C83.3354 77.2304 83.408 77.2667 83.4128 77.361L83.6063 78.43Z" fill="#001297"/>
<path d="M85.4906 77.3296C85.4979 77.4215 85.4398 77.5352 85.3576 77.5811L84.8206 77.8931C84.7408 77.9391 84.6706 77.9004 84.6634 77.8085L84.4699 76.7394C84.4626 76.6475 84.5231 76.5338 84.6029 76.4879L85.1399 76.1759C85.2221 76.1299 85.2898 76.1686 85.2971 76.2581L85.4906 77.3272V77.3296Z" fill="#001297"/>
<path d="M87.3772 76.229C87.3844 76.3209 87.324 76.4346 87.2442 76.4805L86.7072 76.7901C86.6274 76.8361 86.5572 76.7974 86.5476 76.7055L86.354 75.6364C86.3468 75.5445 86.4073 75.4308 86.4871 75.3849L87.0265 75.0753C87.1039 75.0293 87.1764 75.0656 87.1837 75.16L87.3796 76.229H87.3772Z" fill="#001297"/>
<path d="M89.2639 75.131C89.2688 75.2229 89.2107 75.3366 89.1309 75.3826L88.5939 75.6946C88.5141 75.7405 88.444 75.7042 88.4367 75.6123L88.2432 74.5433C88.2359 74.4514 88.2964 74.3401 88.3738 74.2942L88.9132 73.9846C88.993 73.9386 89.0632 73.9749 89.0704 74.0668L89.2663 75.1359L89.2639 75.131Z" fill="#001297"/>
<path d="M91.1505 74.0305C91.1553 74.1224 91.0972 74.2361 91.0174 74.282L90.4805 74.5916C90.4006 74.6376 90.3305 74.6013 90.3232 74.507L90.1297 73.4379C90.1225 73.346 90.183 73.2348 90.2628 73.1888L90.7997 72.8768C90.8771 72.8309 90.9497 72.8696 90.957 72.959L91.1529 74.0281L91.1505 74.0305Z" fill="#001297"/>
<path d="M93.0345 72.9324C93.0418 73.0243 92.9813 73.1355 92.9015 73.1815L92.3645 73.4911C92.2823 73.537 92.2122 73.4983 92.2073 73.4064L92.0114 72.3374C92.0041 72.2455 92.0646 72.1342 92.1444 72.0858L92.6814 71.7738C92.7612 71.7279 92.8314 71.7641 92.8386 71.8585L93.0345 72.9275V72.9324Z" fill="#001297"/>
<path d="M94.9214 71.8319C94.9286 71.9238 94.8681 72.0375 94.7907 72.0835L94.2514 72.3931C94.1715 72.439 94.1014 72.4027 94.0941 72.3108L93.9006 71.2418C93.8934 71.1499 93.9514 71.0362 94.0337 70.9926L94.5706 70.6831C94.6505 70.6371 94.7206 70.6734 94.7279 70.7653L94.9214 71.8343V71.8319Z" fill="#001297"/>
<path d="M96.8078 70.7314C96.8151 70.8233 96.7546 70.937 96.6748 70.9829L96.1354 71.2925C96.0556 71.3385 95.9855 71.2998 95.9782 71.2079L95.7847 70.1388C95.7775 70.0469 95.8379 69.9333 95.9153 69.8873L96.4523 69.5777C96.5321 69.5318 96.6047 69.5705 96.6095 69.6624L96.8078 70.7314Z" fill="#001297"/>
<path d="M98.6922 69.6333C98.6995 69.7252 98.639 69.8389 98.5592 69.8824L98.0222 70.1944C97.9424 70.2404 97.8723 70.2017 97.865 70.1098L97.6715 69.0407C97.6643 68.9488 97.7223 68.8351 97.8021 68.7892L98.3415 68.4796C98.4189 68.4336 98.4915 68.4699 98.4987 68.5618L98.6922 69.6333Z" fill="#001297"/>
<path d="M100.579 68.5329C100.589 68.6248 100.526 68.7385 100.448 68.7845L99.9114 69.0965C99.8315 69.1424 99.7614 69.1037 99.7541 69.0118L99.5582 67.9428C99.551 67.8509 99.6114 67.7372 99.6912 67.6936L100.228 67.3816C100.31 67.3357 100.381 67.3744 100.385 67.4663L100.581 68.5353L100.579 68.5329Z" fill="#001297"/>
<path d="M102.463 67.4324C102.47 67.5243 102.412 67.638 102.33 67.6839L101.793 67.9935C101.716 68.0395 101.643 68.0008 101.636 67.9089L101.44 66.8398C101.435 66.7479 101.493 66.6367 101.573 66.5883L102.11 66.2787C102.19 66.2327 102.26 66.269 102.267 66.3609L102.461 67.43L102.463 67.4324Z" fill="#001297"/>
<path d="M104.35 66.3343C104.357 66.4238 104.296 66.5399 104.217 66.5835L103.68 66.8955C103.597 66.9414 103.527 66.9051 103.522 66.8108L103.326 65.7418C103.319 65.6499 103.38 65.5362 103.459 65.4927L103.996 65.1807C104.076 65.1347 104.146 65.171 104.154 65.2629L104.35 66.3343Z" fill="#001297"/>
<path d="M106.236 65.2338C106.244 65.3257 106.183 65.4394 106.103 65.4853L105.566 65.7973C105.487 65.8433 105.416 65.8046 105.409 65.7127L105.216 64.6436C105.208 64.5517 105.269 64.438 105.349 64.3945L105.886 64.0825C105.965 64.0365 106.036 64.0752 106.043 64.1672L106.236 65.2362V65.2338Z" fill="#001297"/>
<path d="M7.80936 117.211L7.50944 114.514C6.41132 114.49 5.65183 114.386 5.21645 114.197L3.77728 116.722C4.36504 117 5.77035 117.167 7.80936 117.208V117.211Z" fill="#001297"/>
<path d="M4.13271 110.939L3.03459 113.36C3.02976 113.428 3.0225 113.496 3.02008 113.563L4.26816 112.555C4.16174 112.001 4.13513 111.413 4.13271 110.939Z" fill="#001297"/>
<path d="M11.2248 117.01L12.7728 115.982L12.4051 114.284C12.1366 114.311 11.5053 114.369 10.7265 114.42L11.2248 117.008V117.01Z" fill="#001297"/>
<path d="M10.3514 114.444C9.63059 114.487 8.81304 114.524 8.04146 114.524C7.99066 114.524 7.93745 114.524 7.88666 114.521L8.18658 117.218C8.3946 117.218 8.60503 117.223 8.82756 117.223C9.78781 117.223 10.5836 117.199 10.8811 117.187L10.3538 114.446L10.3514 114.444Z" fill="#001297"/>
<path d="M4.90445 113.999C4.65048 113.755 4.47633 113.38 4.36023 112.959L2.99847 114.059C2.97428 115.046 3.07587 116.043 3.47496 116.502L4.90445 113.999Z" fill="#001297"/>
<g style="mix-blend-mode:multiply" opacity="0.2">
<path d="M44.0159 107.928C44.0522 107.906 44.0861 107.887 44.1199 107.865C44.6085 107.035 44.9278 105.988 45.0439 104.764C45.2761 102.28 44.8141 99.332 43.7741 96.6788C42.6614 93.8393 40.9731 91.5246 39.0212 90.1581C37.7417 89.2632 36.3799 88.7891 35.081 88.7891C34.8101 88.7891 34.544 88.8109 34.2877 88.8496L34.157 88.927C34.4546 88.8738 34.7617 88.8447 35.081 88.8447C36.3678 88.8447 37.7199 89.314 38.9897 90.2016C43.3145 93.2274 45.4357 99.9778 44.9883 104.757C44.8698 106.02 44.5311 107.091 44.0159 107.928Z" fill="#4356E3"/>
</g>
<g style="mix-blend-mode:multiply" opacity="0.2">
<path d="M100.973 49.4231C102.233 49.4231 103.559 49.8826 104.8 50.7533C109.035 53.7162 111.112 60.3288 110.675 65.0089C110.605 65.7708 110.45 66.4601 110.225 67.072C110.251 67.0478 110.28 67.0236 110.309 67.0018C110.517 66.4093 110.66 65.7441 110.73 65.0137C110.958 62.5781 110.505 59.6927 109.485 57.0926C108.396 54.3136 106.744 52.0449 104.831 50.7074C103.578 49.8318 102.243 49.3674 100.971 49.3674C100.792 49.3674 100.617 49.3771 100.443 49.394C100.397 49.4182 100.354 49.4424 100.308 49.4642C100.523 49.4376 100.743 49.4206 100.968 49.4206L100.973 49.4231Z" fill="#4356E3"/>
</g>
<g style="mix-blend-mode:multiply" opacity="0.2">
<path d="M15.765 103.836C14.6524 103.057 13.4744 102.614 12.3352 102.542C12.311 102.561 12.2868 102.58 12.2626 102.597C13.4115 102.653 14.604 103.091 15.7311 103.879C19.8527 106.762 21.8772 113.198 21.4491 117.753C21.3306 119.032 20.9726 120.106 20.4284 120.926C20.4598 120.911 20.4937 120.897 20.5251 120.88C21.0476 120.065 21.3886 119.008 21.5072 117.757C21.7273 115.387 21.2871 112.579 20.2929 110.047C19.2335 107.34 17.625 105.134 15.7626 103.831L15.765 103.836Z" fill="#4356E3"/>
</g>
<g style="mix-blend-mode:multiply" opacity="0.2">
<path d="M2.19787 118.541C1.70928 118.246 1.19408 118.089 0.705488 118.089C0.669206 118.089 0.635344 118.091 0.599062 118.093C0.594225 118.113 0.586968 118.132 0.579712 118.152C0.620831 118.149 0.66195 118.147 0.705488 118.147C1.1844 118.147 1.68993 118.301 2.16884 118.592C3.76523 119.559 4.57309 121.68 4.43522 123.17C4.41104 123.429 4.35057 123.659 4.26591 123.86C4.28284 123.86 4.30219 123.864 4.32154 123.864C4.40862 123.664 4.46667 123.431 4.49086 123.175C4.63356 121.668 3.81118 119.523 2.19787 118.543V118.541Z" fill="#4356E3"/>
</g>
<g style="mix-blend-mode:multiply" opacity="0.2">
<path d="M24.5545 115.007C24.5109 115.007 24.4722 114.99 24.4432 114.961C24.3634 114.877 24.3731 114.712 24.3731 114.705C24.344 113.232 24.0925 111.641 23.6426 110.11C23.6426 110.11 23.5289 109.79 23.7926 109.64L25.8751 108.438C25.9283 108.407 25.9815 108.39 26.0275 108.39C26.2331 108.39 26.2645 108.69 26.267 108.704C26.6975 110.223 26.9394 111.8 26.9539 113.259C26.9539 113.261 26.9853 113.653 26.6564 113.834L24.7141 114.957C24.6536 114.99 24.6004 115.007 24.5545 115.007ZM26.0275 108.443C25.9912 108.443 25.9501 108.458 25.9041 108.484L23.8192 109.686C23.5966 109.817 23.6934 110.088 23.6958 110.09C24.1481 111.628 24.4021 113.225 24.4287 114.705C24.4287 114.71 24.4214 114.855 24.4819 114.923C24.523 114.966 24.5908 114.961 24.6827 114.906L26.6274 113.783C26.9224 113.617 26.8958 113.261 26.8958 113.259C26.8765 111.8 26.6395 110.226 26.2065 108.709C26.2065 108.699 26.1775 108.441 26.0227 108.441L26.0275 108.443Z" fill="#4356E3"/>
</g>
<g style="mix-blend-mode:multiply" opacity="0.2">
<g style="mix-blend-mode:multiply" opacity="0.2">
<path d="M45.8468 102.559C45.8008 102.559 45.7645 102.544 45.7331 102.513C45.6533 102.428 45.6654 102.264 45.6654 102.256C45.6363 100.783 45.3824 99.1918 44.9349 97.6608C44.9349 97.6608 44.8212 97.3415 45.0849 97.1892L47.1674 95.9871C47.2206 95.9556 47.2738 95.9387 47.3198 95.9387C47.5254 95.9387 47.5568 96.2386 47.5593 96.2531C47.9922 97.7721 48.2268 99.349 48.2462 100.81C48.2462 100.81 48.2776 101.202 47.9487 101.386L46.0064 102.508C45.9484 102.542 45.8927 102.559 45.8492 102.559H45.8468ZM47.3198 95.9943C47.2811 95.9943 47.24 96.0089 47.1964 96.033L45.1139 97.2351C44.8914 97.3633 44.9881 97.6366 44.9881 97.6414C45.4404 99.1797 45.6944 100.776 45.721 102.256C45.721 102.259 45.7137 102.406 45.7766 102.474C45.8177 102.517 45.8879 102.513 45.9798 102.459L47.9221 101.337C48.2172 101.17 48.1906 100.817 48.1906 100.812C48.1736 99.3539 47.9366 97.7817 47.5036 96.2628C47.5036 96.2556 47.4746 95.9943 47.3198 95.9943Z" fill="#4356E3"/>
</g>
</g>
<g style="mix-blend-mode:multiply" opacity="0.2">
<path d="M107.736 66.3754C107.692 66.3754 107.654 66.3585 107.625 66.3295C107.547 66.2448 107.554 66.0804 107.554 66.0731C107.525 64.6001 107.274 63.0111 106.824 61.4777C106.824 61.4777 106.71 61.1584 106.974 61.006L108.841 59.804C108.897 59.7725 108.948 59.7556 108.994 59.7556C109.202 59.7556 109.231 60.0579 109.233 60.07C109.666 61.5889 109.905 63.1659 109.922 64.6268C109.922 64.6268 109.951 65.0186 109.625 65.2024L107.895 66.3222C107.835 66.3585 107.779 66.3754 107.736 66.3754ZM108.994 59.8112C108.957 59.8112 108.916 59.8257 108.87 59.8523L107.001 61.0544C106.778 61.1826 106.875 61.4559 106.875 61.4607C107.327 63.0014 107.581 64.5953 107.61 66.0755C107.61 66.0804 107.603 66.2255 107.663 66.2932C107.707 66.3392 107.772 66.3319 107.866 66.2787L109.596 65.1564C109.893 64.9896 109.867 64.634 109.864 64.6316C109.847 63.1731 109.61 61.5986 109.177 60.0821C109.177 60.0748 109.148 59.8136 108.994 59.8136V59.8112Z" fill="#4356E3"/>
</g>
<g style="mix-blend-mode:multiply" opacity="0.2">
<path d="M61.4551 76.8627C65.4001 79.6248 67.5117 85.4852 67.5117 90.1194C67.5286 90.1097 67.5456 90.1 67.5601 90.0879C67.5553 87.9208 67.0981 85.5288 66.2394 83.335C65.1268 80.498 63.4385 78.1809 61.4866 76.8144C60.207 75.9195 58.8453 75.4478 57.5464 75.4478C57.1957 75.4478 56.857 75.4817 56.5257 75.547L56.3806 75.634C56.7506 75.5494 57.1376 75.5034 57.544 75.5034C58.8283 75.5034 60.1829 75.9727 61.4527 76.8603L61.4551 76.8627Z" fill="#4356E3"/>
</g>
<g style="mix-blend-mode:multiply" opacity="0.2">
<path d="M85.4709 62.1234C89.7932 65.1492 91.9145 71.8996 91.4694 76.6765C91.363 77.8108 91.08 78.7904 90.647 79.5861C90.6639 79.5958 90.6809 79.6054 90.6954 79.6175C91.1284 78.8145 91.4186 77.8253 91.525 76.6837C91.7572 74.1973 91.2952 71.249 90.2552 68.5957C89.1425 65.7586 87.4542 63.4416 85.5023 62.0775C84.2228 61.1826 82.861 60.7085 81.5621 60.7085C81.4871 60.7085 81.4122 60.7109 81.3372 60.7133L81.2356 60.7738C81.342 60.7665 81.4533 60.7617 81.5621 60.7617C82.8513 60.7617 84.201 61.2309 85.4733 62.121L85.4709 62.1234Z" fill="#4356E3"/>
</g>
<defs>
<linearGradient id="paint0_linear_2116_4552" x1="63.4384" y1="70.6951" x2="74.726" y2="90.248" gradientUnits="userSpaceOnUse">
<stop stop-color="#C6CCF7"/>
<stop offset="0.25" stop-color="#F3F4FF"/>
<stop offset="1" stop-color="#C6CCF7"/>
</linearGradient>
<linearGradient id="paint1_linear_2116_4552" x1="71.5559" y1="119.155" x2="66.8251" y2="110.961" gradientUnits="userSpaceOnUse">
<stop stop-color="white"/>
<stop offset="1" stop-color="#4356E3"/>
</linearGradient>
<linearGradient id="paint2_linear_2116_4552" x1="73.3892" y1="106.578" x2="78.0643" y2="116.606" gradientUnits="userSpaceOnUse">
<stop stop-color="#C6CCF7"/>
<stop offset="0.44" stop-color="#E6E7F2"/>
<stop offset="1" stop-color="#C6CCF7"/>
</linearGradient>
<linearGradient id="paint3_linear_2116_4552" x1="83.6109" y1="103.27" x2="86.8591" y2="110.233" gradientUnits="userSpaceOnUse">
<stop offset="0.16" stop-color="#C6CCF7"/>
<stop offset="0.44" stop-color="#D9DAE5"/>
<stop offset="1" stop-color="#C6CCF7"/>
</linearGradient>
<linearGradient id="paint4_linear_2116_4552" x1="69.0112" y1="111.05" x2="72.2255" y2="117.944" gradientUnits="userSpaceOnUse">
<stop stop-color="white"/>
<stop offset="0.52" stop-color="white"/>
<stop offset="1" stop-color="white"/>
</linearGradient>
<linearGradient id="paint5_linear_2116_4552" x1="66.5877" y1="110.838" x2="70.6098" y2="119.467" gradientUnits="userSpaceOnUse">
<stop stop-color="white"/>
<stop offset="0.52" stop-color="white"/>
<stop offset="1" stop-color="white"/>
</linearGradient>
<linearGradient id="paint6_linear_2116_4552" x1="70.5738" y1="113.774" x2="72.1775" y2="113.774" gradientUnits="userSpaceOnUse">
<stop stop-color="white"/>
<stop offset="1" stop-color="#4356E3"/>
</linearGradient>
<linearGradient id="paint7_linear_2116_4552" x1="77.8956" y1="104.022" x2="78.2173" y2="104.479" gradientUnits="userSpaceOnUse">
<stop offset="0.1" stop-color="white"/>
<stop offset="1" stop-color="white"/>
</linearGradient>
<linearGradient id="paint8_linear_2116_4552" x1="24.3731" y1="91.1182" x2="19.6423" y2="82.9236" gradientUnits="userSpaceOnUse">
<stop stop-color="white"/>
<stop offset="1" stop-color="#4356E3"/>
</linearGradient>
<linearGradient id="paint9_linear_2116_4552" x1="26.2064" y1="78.5413" x2="30.8839" y2="88.5716" gradientUnits="userSpaceOnUse">
<stop stop-color="#C6CCF7"/>
<stop offset="0.44" stop-color="#E6E7F2"/>
<stop offset="1" stop-color="#C6CCF7"/>
</linearGradient>
<linearGradient id="paint10_linear_2116_4552" x1="36.4281" y1="75.2325" x2="39.6763" y2="82.1983" gradientUnits="userSpaceOnUse">
<stop offset="0.16" stop-color="#C6CCF7"/>
<stop offset="0.44" stop-color="#D9DAE5"/>
<stop offset="1" stop-color="#C6CCF7"/>
</linearGradient>
<linearGradient id="paint11_linear_2116_4552" x1="21.8284" y1="83.0133" x2="25.0427" y2="89.9066" gradientUnits="userSpaceOnUse">
<stop stop-color="white"/>
<stop offset="0.52" stop-color="white"/>
<stop offset="1" stop-color="white"/>
</linearGradient>
<linearGradient id="paint12_linear_2116_4552" x1="19.405" y1="82.8029" x2="23.4295" y2="91.4304" gradientUnits="userSpaceOnUse">
<stop stop-color="white"/>
<stop offset="0.52" stop-color="white"/>
<stop offset="1" stop-color="white"/>
</linearGradient>
<linearGradient id="paint13_linear_2116_4552" x1="23.391" y1="85.7392" x2="24.9946" y2="85.7392" gradientUnits="userSpaceOnUse">
<stop stop-color="white"/>
<stop offset="1" stop-color="#4356E3"/>
</linearGradient>
<linearGradient id="paint14_linear_2116_4552" x1="30.7126" y1="75.9848" x2="31.0343" y2="76.4443" gradientUnits="userSpaceOnUse">
<stop offset="0.1" stop-color="white"/>
<stop offset="1" stop-color="white"/>
</linearGradient>
<linearGradient id="paint15_linear_2116_4552" x1="134.819" y1="29.8998" x2="124.372" y2="24.7864" gradientUnits="userSpaceOnUse">
<stop stop-color="#C6CCF7"/>
<stop offset="1" stop-color="#DFE0EA"/>
</linearGradient>
<linearGradient id="paint16_linear_2116_4552" x1="59.7691" y1="67.7565" x2="60.9614" y2="69.8245" gradientUnits="userSpaceOnUse">
<stop stop-color="#A1A2AC"/>
<stop offset="0.08" stop-color="#AAABB6"/>
<stop offset="0.29" stop-color="#C1C2CD"/>
<stop offset="0.68" stop-color="#A2A3AD"/>
<stop offset="1" stop-color="#84858D"/>
</linearGradient>
<linearGradient id="paint17_linear_2116_4552" x1="97.1464" y1="89.6792" x2="98.3388" y2="91.7472" gradientUnits="userSpaceOnUse">
<stop stop-color="#A1A2AC"/>
<stop offset="0.08" stop-color="#AAABB6"/>
<stop offset="0.29" stop-color="#C1C2CD"/>
<stop offset="0.68" stop-color="#A2A3AD"/>
<stop offset="1" stop-color="#84858D"/>
</linearGradient>
<linearGradient id="paint18_linear_2116_4552" x1="116.296" y1="95.0921" x2="117.488" y2="97.1576" gradientUnits="userSpaceOnUse">
<stop stop-color="#A1A2AC"/>
<stop offset="0.08" stop-color="#AAB2B6"/>
<stop offset="0.29" stop-color="#C1C9CD"/>
<stop offset="0.68" stop-color="#A2AAAD"/>
<stop offset="1" stop-color="#848A8D"/>
</linearGradient>
<linearGradient id="paint19_linear_2116_4552" x1="48.193" y1="54.5483" x2="49.3854" y2="56.6163" gradientUnits="userSpaceOnUse">
<stop stop-color="#A1A2AC"/>
<stop offset="0.08" stop-color="#AAABB6"/>
<stop offset="0.29" stop-color="#C1C2CD"/>
<stop offset="0.68" stop-color="#A2A3AD"/>
<stop offset="1" stop-color="#84858D"/>
</linearGradient>
<linearGradient id="paint20_linear_2116_4552" x1="108.191" y1="104.416" x2="108.386" y2="93.0919" gradientUnits="userSpaceOnUse">
<stop stop-color="#C6CCF7"/>
<stop offset="1" stop-color="#DFE6EA"/>
</linearGradient>
<linearGradient id="paint21_linear_2116_4552" x1="143.725" y1="55.0707" x2="145.587" y2="44.8373" gradientUnits="userSpaceOnUse">
<stop stop-color="#C6CCF7"/>
<stop offset="1" stop-color="#DFE0EA"/>
</linearGradient>
<linearGradient id="paint22_linear_2116_4552" x1="109.426" y1="33.6389" x2="117.691" y2="25.6448" gradientUnits="userSpaceOnUse">
<stop stop-color="#C6CCF7"/>
<stop offset="1" stop-color="#DFE0EA"/>
</linearGradient>
<linearGradient id="paint23_linear_2116_4552" x1="143.887" y1="54.9038" x2="143.937" y2="54.2701" gradientUnits="userSpaceOnUse">
<stop stop-color="#B8B9C3"/>
<stop offset="1" stop-color="#DFE0EA"/>
</linearGradient>
<linearGradient id="paint24_linear_2116_4552" x1="109.221" y1="33.5325" x2="109.632" y2="33.4382" gradientUnits="userSpaceOnUse">
<stop stop-color="#B8B9C3"/>
<stop offset="1" stop-color="#DFE0EA"/>
</linearGradient>
<linearGradient id="paint25_linear_2116_4552" x1="110.713" y1="104.871" x2="110.817" y2="103.453" gradientUnits="userSpaceOnUse">
<stop stop-color="#B8B9C3"/>
<stop offset="1" stop-color="#DFE0EA"/>
</linearGradient>
<linearGradient id="paint26_linear_2116_4552" x1="29.9458" y1="56.2896" x2="45.7184" y2="49.8458" gradientUnits="userSpaceOnUse">
<stop stop-color="#C6CCF7"/>
<stop offset="1" stop-color="#DFE0EA"/>
</linearGradient>
<linearGradient id="paint27_linear_2116_4552" x1="30.3571" y1="56.1953" x2="31.4914" y2="55.8929" gradientUnits="userSpaceOnUse">
<stop stop-color="#B8B9C3"/>
<stop offset="1" stop-color="#DFE0EA"/>
</linearGradient>
</defs>
</svg>
