<svg width="52" height="41" viewBox="0 0 52 41" fill="none" xmlns="http://www.w3.org/2000/svg">
<path d="M15.1728 33.6356L13.3208 34.7056V36.2552L15.1728 35.1853V33.6356Z" fill="#101416"/>
<path d="M29.652 28.3993L20.1272 22.8955V19.6508L29.652 25.1517V28.3993Z" fill="#A5ABCC"/>
<path d="M16.1239 37.7583C15.7808 37.5606 15.5657 37.1332 15.5657 36.5285C15.5657 35.3161 16.4176 33.842 17.4672 33.2343C17.9934 32.932 18.4673 32.9029 18.8104 33.1006C19.1535 33.2983 19.3686 33.7257 19.3686 34.3334C19.3686 35.5458 18.5167 37.0198 17.4672 37.6275C16.9409 37.9299 16.467 37.9589 16.121 37.7612L16.1239 37.7583Z" fill="#362E94"/>
<path d="M16.4205 36.0314C16.4205 35.3627 16.8886 34.5515 17.4672 34.2171C18.0458 33.8828 18.5139 34.1532 18.5139 34.8219C18.5139 35.4906 18.0458 36.3018 17.4672 36.6361C16.8886 36.9705 16.4205 36.7001 16.4205 36.0314Z" fill="#BBC0E6"/>
<path d="M15.5656 36.5256C15.5656 35.3132 16.4175 33.8391 17.4671 33.2315C17.9933 32.9291 18.4673 32.9 18.8103 33.0977L17.3537 32.2575C17.0106 32.0598 16.5338 32.0889 16.0105 32.3912C14.9609 32.9989 14.109 34.473 14.109 35.6854C14.109 36.2901 14.3241 36.7175 14.6672 36.9152L16.1239 37.7555C15.7808 37.5578 15.5656 37.1304 15.5656 36.5256Z" fill="#101416"/>
<path d="M11.9805 40.1484C11.6374 39.9507 11.4222 39.5232 11.4222 38.9185C11.4222 37.7061 12.2741 36.232 13.3237 35.6244C13.85 35.322 14.3239 35.2929 14.667 35.4906C15.01 35.6883 15.2252 36.1157 15.2252 36.7234C15.2252 37.9358 14.3733 39.4099 13.3237 40.0175C12.7975 40.3199 12.3236 40.349 11.9776 40.1513L11.9805 40.1484Z" fill="#362E94"/>
<path d="M12.2799 38.4242C12.2799 37.7555 12.748 36.9443 13.3266 36.61C13.9052 36.2756 14.3733 36.546 14.3733 37.2147C14.3733 37.8834 13.9052 38.6946 13.3266 39.029C12.748 39.3633 12.2799 39.0929 12.2799 38.4242Z" fill="#BBC0E6"/>
<path d="M11.4253 38.9184C11.4253 37.706 12.2772 36.232 13.3267 35.6243C13.853 35.3219 14.3269 35.2928 14.67 35.4906L13.2134 34.6503C12.8703 34.4526 12.3935 34.4817 11.8701 34.784C10.8205 35.3917 9.96863 36.8658 9.96863 38.0782C9.96863 38.6829 10.1809 39.1103 10.5269 39.308L11.9835 40.1483C11.6404 39.9506 11.4253 39.5232 11.4253 38.9184Z" fill="#101416"/>
<path d="M34.7953 22.4798L32.9432 23.5498V25.0994L34.7953 24.0324V22.4798Z" fill="#101416"/>
<path d="M37.918 19.9474L39.7729 21.0174L39.77 22.567L37.918 21.5V19.9474Z" fill="#101416"/>
<path d="M47.7568 14.275L49.6089 15.342V16.8946L47.7568 15.8246V14.275Z" fill="#101416"/>
<path d="M29.6551 25.1401V25.8669L17.531 32.868L16.2488 33.6095L16.1296 33.6792L13.3268 35.2958C12.7221 35.6447 12.1755 36.2436 11.7801 36.9298C11.3846 37.6159 11.1375 38.3893 11.1375 39.09L9.5791 39.9768V36.7321L29.6551 25.1401Z" fill="#BBC0E6"/>
<path d="M46.0731 20.4853C45.7301 20.2876 45.5149 19.8602 45.5149 19.2554C45.5149 18.043 46.3668 16.569 47.4164 15.9613C47.9426 15.6589 48.4165 15.6298 48.7596 15.8276C49.1027 16.0253 49.3179 16.4527 49.3179 17.0603C49.3179 18.2727 48.466 19.7468 47.4164 20.3545C46.8901 20.6568 46.4162 20.6859 46.0702 20.4882L46.0731 20.4853Z" fill="#362E94"/>
<path d="M46.3698 18.7611C46.3698 18.0924 46.8378 17.2813 47.4164 16.9469C47.995 16.6125 48.4631 16.8829 48.4631 17.5516C48.4631 18.2204 47.995 19.0315 47.4164 19.3659C46.8378 19.7002 46.3698 19.4299 46.3698 18.7611Z" fill="#BBC0E6"/>
<path d="M45.515 19.2554C45.515 18.043 46.3669 16.5689 47.4165 15.9613C47.9427 15.6589 48.4166 15.6298 48.7597 15.8275L47.3031 14.9873C46.96 14.7896 46.4832 14.8186 45.9598 15.121C44.9102 15.7287 44.0583 17.2027 44.0583 18.4152C44.0583 19.0199 44.2735 19.4473 44.6166 19.645L46.0732 20.4853C45.7301 20.2876 45.515 19.8602 45.515 19.2554Z" fill="#101416"/>
<path d="M36.2346 26.1664C35.8916 25.9687 35.6764 25.5413 35.6764 24.9365C35.6764 23.7241 36.5283 22.25 37.5779 21.6424C38.1041 21.34 38.578 21.3109 38.9211 21.5086C39.2642 21.7063 39.4793 22.1337 39.4793 22.7414C39.4793 23.9538 38.6275 25.4279 37.5779 26.0355C37.0516 26.3379 36.5777 26.367 36.2317 26.1693L36.2346 26.1664Z" fill="#362E94"/>
<path d="M36.5338 24.4423C36.5338 23.7736 37.0019 22.9624 37.5805 22.6281C38.1591 22.2937 38.6272 22.5641 38.6272 23.2328C38.6272 23.9015 38.1591 24.7127 37.5805 25.0471C37.0019 25.3814 36.5338 25.111 36.5338 24.4423Z" fill="#BBC0E6"/>
<path d="M35.6793 24.9336C35.6793 23.7212 36.5312 22.2471 37.5808 21.6395C38.107 21.3371 38.5809 21.308 38.924 21.5057L37.4674 20.6655C37.1243 20.4678 36.6475 20.4968 36.1241 20.7992C35.0746 21.4069 34.2227 22.8809 34.2227 24.0933C34.2227 24.6981 34.4349 25.1255 34.7809 25.3232L36.2375 26.1634C35.8945 25.9657 35.6793 25.5384 35.6793 24.9336Z" fill="#101416"/>
<path d="M32.0565 28.5767C31.7135 28.379 31.4983 27.9516 31.4983 27.3468C31.4983 26.1344 32.3502 24.6604 33.3998 24.0527C33.926 23.7503 34.3999 23.7212 34.743 23.9189C35.0861 24.1167 35.3012 24.544 35.3012 25.1517C35.3012 26.3641 34.4494 27.8382 33.3998 28.4458C32.8735 28.7482 32.3996 28.7773 32.0536 28.5796L32.0565 28.5767Z" fill="#362E94"/>
<path d="M32.3531 26.8497C32.3531 26.1809 32.8212 25.3698 33.3998 25.0354C33.9784 24.701 34.4465 24.9714 34.4465 25.6402C34.4465 26.3089 33.9784 27.12 33.3998 27.4544C32.8212 27.7888 32.3531 27.5184 32.3531 26.8497Z" fill="#BBC0E6"/>
<path d="M31.4984 27.3439C31.4984 26.1315 32.3503 24.6575 33.3999 24.0498C33.9261 23.7474 34.4 23.7183 34.7431 23.9161L33.2865 23.0758C32.9434 22.8781 32.4666 22.9072 31.9432 23.2095C30.8936 23.8172 30.0417 25.2913 30.0417 26.5037C30.0417 27.1084 30.254 27.5358 30.6 27.7335L32.0566 28.5738C31.7135 28.3761 31.4984 27.9487 31.4984 27.3439Z" fill="#101416"/>
<path d="M43.6687 16.2753C43.6687 16.2753 43.6687 13.5103 43.6687 9.62015C44.6223 9.07064 46.579 7.93964 47.4164 7.457C52.8097 4.34312 51.3676 15.8741 51.3676 15.8741C51.3589 15.8799 51.3502 15.8857 51.3385 15.8915C50.4372 16.4119 49.6057 16.8917 49.6057 16.8917C49.6057 15.4932 48.6259 14.9291 47.4164 15.6269C46.8116 15.9758 46.265 16.5748 45.8696 17.2609C45.4742 17.9471 45.2271 18.7204 45.2271 19.4211L44.5642 19.8049C43.7298 20.2847 41.5114 21.5668 41.5026 21.5698C40.6013 22.0902 39.7698 22.5699 39.7698 22.5699C39.7698 21.1714 38.79 20.6074 37.5805 21.3052L33.4025 23.7184C32.7977 24.0673 32.2511 24.6662 31.8557 25.3523C31.4603 26.0385 31.2132 26.8119 31.2132 27.5126L29.6548 28.3994V25.1401L39.04 19.7206L39.7116 18.5576L43.6687 16.2724V16.2753Z" fill="#BBC0E6"/>
<path d="M51.5277 11.9636L49.5739 13.0917C49.5739 12.4113 49.2105 12.1991 48.6203 12.5422L45.5849 14.2953C45.361 14.4233 45.2244 14.3448 45.2244 14.086V10.5535C45.2244 10.347 45.4482 9.96035 45.6256 9.85859L50.1002 7.28258C51.1236 8.07631 51.4579 10.0883 51.5248 11.9694L51.5277 11.9636Z" fill="url(#paint0_linear_2396_6906)"/>
<path d="M43.6687 16.2753L34.141 10.7715V4.11922L43.6687 9.62013V16.2753Z" fill="#CED3F8"/>
<path d="M39.7117 18.5577L30.184 13.0568L34.141 10.7715L43.6687 16.2753L39.7117 18.5577Z" fill="#F1F1F6"/>
<path d="M9.57899 36.732L0.0512695 31.2311L29.5125 14.2196L39.0402 19.7205L9.57899 36.732Z" fill="#F1F1F6"/>
<path d="M30.1639 13.0305L29.4923 14.1938L39.0201 19.6947L39.6918 18.5314L30.1639 13.0305Z" fill="#E8ECF7"/>
<path d="M9.57899 39.9768L0.0512695 34.4759V31.2312L9.57899 36.7321V39.9768Z" fill="#CED3F8"/>
<path d="M2.22879 33.8596L0.557007 32.8943V32.0918L2.22879 33.0571V33.8596Z" fill="#FF5A72"/>
<path d="M7.39844 36.8454L9.07313 37.8107V37.0082L7.39844 36.043V36.8454Z" fill="#FF5A72"/>
<path d="M3.35107 35.2551L6.27595 36.9415V35.9529L3.35107 34.2637V35.2551Z" fill="#F6F6FB"/>
<path d="M40.5752 1.77585C39.9588 1.29903 39.0982 1.25834 37.8887 1.95613L34.141 4.11926L43.6687 9.62016L47.4164 7.45702C48.3875 6.89588 49.1347 6.81447 49.7133 7.05288L40.5781 1.77585H40.5752Z" fill="#F1F1F6"/>
<path d="M9.64709 24.6891V35.9116L43.0123 16.5246V5.34595L9.64709 24.6891Z" fill="url(#paint1_linear_2396_6906)"/>
<g style="mix-blend-mode:multiply">
<path d="M10.438 25.1426L42.2213 6.70663V16.0709L10.438 34.5362V25.1426Z" fill="#E6E7E8"/>
</g>
<g style="mix-blend-mode:screen">
<path d="M11.4489 24.689L11.0242 24.967V34.3606L11.4489 34.0826V24.689Z" fill="#414042"/>
</g>
<g style="mix-blend-mode:multiply">
<path d="M11.0093 24.9232H10.8481V34.3167H11.0093V24.9232Z" fill="#BCBEC0"/>
</g>
<g style="mix-blend-mode:screen">
<path d="M12.8109 23.899L12.4008 24.177V33.5705L12.8109 33.2925V23.899Z" fill="#414042"/>
</g>
<g style="mix-blend-mode:multiply">
<path d="M12.3713 24.133H12.2102V33.5266H12.3713V24.133Z" fill="#BCBEC0"/>
</g>
<g style="mix-blend-mode:screen">
<path d="M14.1732 23.1088L13.7631 23.3869V32.7804L14.1732 32.5024V23.1088Z" fill="#414042"/>
</g>
<g style="mix-blend-mode:multiply">
<path d="M13.7336 23.3429H13.5725V32.7364H13.7336V23.3429Z" fill="#BCBEC0"/>
</g>
<g style="mix-blend-mode:screen">
<path d="M15.5351 22.3187L15.125 22.5967V31.9903L15.5351 31.7123V22.3187Z" fill="#414042"/>
</g>
<g style="mix-blend-mode:multiply">
<path d="M15.0954 22.5529H14.949V31.9464H15.0954V22.5529Z" fill="#BCBEC0"/>
</g>
<g style="mix-blend-mode:screen">
<path d="M16.8972 21.5286L16.4871 21.8066V31.2001L16.8972 30.9221V21.5286Z" fill="#414042"/>
</g>
<g style="mix-blend-mode:multiply">
<path d="M16.4577 21.7627L16.3113 21.7481V31.1563H16.4577V21.7627Z" fill="#BCBEC0"/>
</g>
<g style="mix-blend-mode:screen">
<path d="M18.2597 20.7386L17.8496 21.0019V30.4101L18.2597 30.1321V20.7386Z" fill="#414042"/>
</g>
<g style="mix-blend-mode:multiply">
<path d="M17.8349 20.9727L17.6738 20.9581V30.3663H17.8349V20.9727Z" fill="#BCBEC0"/>
</g>
<g style="mix-blend-mode:screen">
<path d="M19.6215 19.9484L19.2114 20.2117V29.6053L19.6215 29.3419V19.9484Z" fill="#414042"/>
</g>
<g style="mix-blend-mode:multiply">
<path d="M19.1965 20.1825L19.0354 20.1679V29.5614L19.1965 29.5761V20.1825Z" fill="#BCBEC0"/>
</g>
<g style="mix-blend-mode:screen">
<path d="M20.9836 19.1583L20.5735 19.4216V28.8152L20.9836 28.5518V19.1583Z" fill="#414042"/>
</g>
<g style="mix-blend-mode:multiply">
<path d="M20.5588 19.3924L20.3977 19.3778V28.7713L20.5588 28.786V19.3924Z" fill="#BCBEC0"/>
</g>
<g style="mix-blend-mode:screen">
<path d="M22.3605 18.3535L21.9358 18.6315V28.0251L22.3605 27.7471V18.3535Z" fill="#414042"/>
</g>
<g style="mix-blend-mode:multiply">
<path d="M21.9214 18.6022L21.7603 18.5876V27.9812L21.9214 27.9958V18.6022Z" fill="#BCBEC0"/>
</g>
<g style="mix-blend-mode:screen">
<path d="M23.7224 17.5634L23.2976 17.8414V27.235L23.7224 26.957V17.5634Z" fill="#414042"/>
</g>
<g style="mix-blend-mode:multiply">
<path d="M23.2829 17.8121L23.1218 17.7974V27.191L23.2829 27.2056V17.8121Z" fill="#BCBEC0"/>
</g>
<g style="mix-blend-mode:screen">
<path d="M25.0847 16.7733L24.6599 17.0513V26.4449L25.0847 26.1669V16.7733Z" fill="#414042"/>
</g>
<g style="mix-blend-mode:multiply">
<path d="M24.6452 17.0074H24.4841V26.401L24.6452 26.4156V17.0074Z" fill="#BCBEC0"/>
</g>
<g style="mix-blend-mode:screen">
<path d="M26.4467 15.9832L26.022 16.2612V25.6548L26.4467 25.3768V15.9832Z" fill="#414042"/>
</g>
<g style="mix-blend-mode:multiply">
<path d="M26.0073 16.2173H25.8462V25.6109H26.0073V16.2173Z" fill="#BCBEC0"/>
</g>
<g style="mix-blend-mode:screen">
<path d="M27.8094 15.1931L27.3993 15.4711V24.8647L27.8094 24.5867V15.1931Z" fill="#414042"/>
</g>
<g style="mix-blend-mode:multiply">
<path d="M27.3699 15.4272H27.2087V24.8208H27.3699V15.4272Z" fill="#BCBEC0"/>
</g>
<g style="mix-blend-mode:screen">
<path d="M29.1713 14.4029L28.7612 14.6809V24.0745L29.1713 23.7965V14.4029Z" fill="#414042"/>
</g>
<g style="mix-blend-mode:multiply">
<path d="M28.7317 14.6371H28.5852V24.0307H28.7317V14.6371Z" fill="#BCBEC0"/>
</g>
<g style="mix-blend-mode:screen">
<path d="M30.5336 13.6128L30.1235 13.8908V23.2844L30.5336 23.0064V13.6128Z" fill="#414042"/>
</g>
<g style="mix-blend-mode:multiply">
<path d="M30.094 13.8469H29.9475V23.2405H30.094V13.8469Z" fill="#BCBEC0"/>
</g>
<g style="mix-blend-mode:screen">
<path d="M31.8957 12.8227L31.4856 13.1007V22.4943L31.8957 22.2163V12.8227Z" fill="#414042"/>
</g>
<g style="mix-blend-mode:multiply">
<path d="M31.4707 13.0568H31.3096V22.4504H31.4707V13.0568Z" fill="#BCBEC0"/>
</g>
<g style="mix-blend-mode:screen">
<path d="M33.2575 12.0326L32.8474 12.3106V21.7042L33.2575 21.4262V12.0326Z" fill="#414042"/>
</g>
<g style="mix-blend-mode:multiply">
<path d="M32.8327 12.2668H32.6716V21.6603H32.8327V12.2668Z" fill="#BCBEC0"/>
</g>
<g style="mix-blend-mode:screen">
<path d="M34.6198 11.2425L34.2097 11.5205V20.9141L34.6198 20.6361V11.2425Z" fill="#414042"/>
</g>
<g style="mix-blend-mode:multiply">
<path d="M34.1951 11.4766L34.0339 11.4619V20.8701H34.1951V11.4766Z" fill="#BCBEC0"/>
</g>
<g style="mix-blend-mode:screen">
<path d="M35.9967 10.4524L35.5719 10.7158V20.124L35.9967 19.846V10.4524Z" fill="#414042"/>
</g>
<g style="mix-blend-mode:multiply">
<path d="M35.5571 10.6866L35.396 10.6719V20.0801H35.5571V10.6866Z" fill="#BCBEC0"/>
</g>
<g style="mix-blend-mode:screen">
<path d="M37.3586 9.66223L36.9338 9.9256V19.3192L37.3586 19.0558V9.66223Z" fill="#414042"/>
</g>
<g style="mix-blend-mode:multiply">
<path d="M36.9192 9.89635L36.7581 9.88173V19.2753L36.9192 19.2899V9.89635Z" fill="#BCBEC0"/>
</g>
<g style="mix-blend-mode:screen">
<path d="M38.7209 8.87224L38.2961 9.13561V18.5292L38.7209 18.2658V8.87224Z" fill="#414042"/>
</g>
<g style="mix-blend-mode:multiply">
<path d="M38.2815 9.10628L38.1204 9.09164V18.4852L38.2815 18.4999V9.10628Z" fill="#BCBEC0"/>
</g>
<g style="mix-blend-mode:screen">
<path d="M40.083 8.06734L39.6582 8.34535V17.7389L40.083 17.4755V8.06734Z" fill="#414042"/>
</g>
<g style="mix-blend-mode:multiply">
<path d="M39.6435 8.31619L39.4824 8.30156V17.6951L39.6435 17.7098V8.31619Z" fill="#BCBEC0"/>
</g>
<g style="mix-blend-mode:screen">
<path d="M41.4453 7.27734L41.0352 7.55534V16.9489L41.4453 16.6709V7.27734Z" fill="#414042"/>
</g>
<g style="mix-blend-mode:multiply">
<path d="M41.0058 7.5261L40.8447 7.51147V16.905L41.0058 16.9197V7.5261Z" fill="#BCBEC0"/>
</g>
<g style="mix-blend-mode:multiply">
<path d="M10.438 25.1426V25.9766L41.943 7.70158V16.2319L42.2213 16.0709V6.70663L10.438 25.1426Z" fill="#D1D3D4"/>
</g>
<path d="M9.64723 24.6891V35.9116L0.493042 30.7174V19.4656L9.64723 24.6891Z" fill="url(#paint2_linear_2396_6906)"/>
<g style="mix-blend-mode:multiply">
<path d="M1.28381 30.2491V20.8262L8.85615 25.1426V34.5508L1.28381 30.2491Z" fill="#E6E7E8"/>
</g>
<path d="M0.493164 19.4655L9.64735 24.689L43.0125 5.34584L33.8437 0.122314L0.493164 19.4655Z" fill="url(#paint3_linear_2396_6906)"/>
<g style="mix-blend-mode:screen">
<path d="M8.0946 24.8646L8.50471 25.128V34.5215L8.0946 34.2582V24.8646Z" fill="#414042"/>
</g>
<g style="mix-blend-mode:multiply">
<path d="M8.51941 25.0987L8.68051 25.0841V34.4777L8.51941 34.4923V25.0987Z" fill="#BCBEC0"/>
</g>
<g style="mix-blend-mode:screen">
<path d="M6.86414 24.133L7.27424 24.411V33.8046L6.86414 33.5265V24.133Z" fill="#414042"/>
</g>
<g style="mix-blend-mode:multiply">
<path d="M7.28894 24.3671H7.45006V33.7607H7.28894V24.3671Z" fill="#BCBEC0"/>
</g>
<g style="mix-blend-mode:screen">
<path d="M5.61938 23.4161L6.04414 23.6794V33.0876L5.61938 32.8096V23.4161Z" fill="#414042"/>
</g>
<g style="mix-blend-mode:multiply">
<path d="M6.05884 23.6502L6.21994 23.6356V33.0291L6.05884 33.0438V23.6502Z" fill="#BCBEC0"/>
</g>
<g style="mix-blend-mode:screen">
<path d="M4.38916 22.6844L4.81392 22.9624V32.356L4.38916 32.078V22.6844Z" fill="#414042"/>
</g>
<g style="mix-blend-mode:multiply">
<path d="M4.82837 22.9187H4.98948V32.3122H4.82837V22.9187Z" fill="#BCBEC0"/>
</g>
<g style="mix-blend-mode:screen">
<path d="M3.15869 21.9675L3.58345 22.2455V31.6391L3.15869 31.3611V21.9675Z" fill="#414042"/>
</g>
<g style="mix-blend-mode:multiply">
<path d="M3.5979 22.2016L3.75901 22.187V31.5952H3.5979V22.2016Z" fill="#BCBEC0"/>
</g>
<g style="mix-blend-mode:screen">
<path d="M1.92822 21.236L2.33833 21.514V30.9076L1.92822 30.6296V21.236Z" fill="#414042"/>
</g>
<g style="mix-blend-mode:multiply">
<path d="M2.36792 21.47H2.51438V30.8636L2.36792 30.8782V21.47Z" fill="#BCBEC0"/>
</g>
<g style="mix-blend-mode:multiply">
<path d="M9.10514 25.3036V26.1376L1.43027 21.6603V30.1906L1.15198 30.0297V20.6653L9.10514 25.3036Z" fill="#D1D3D4"/>
</g>
<defs>
<linearGradient id="paint0_linear_2396_6906" x1="155.769" y1="-114.355" x2="149.459" y2="-107.068" gradientUnits="userSpaceOnUse">
<stop stop-color="#5652CC"/>
<stop offset="0.16" stop-color="#504BC2"/>
<stop offset="1" stop-color="#362E94"/>
</linearGradient>
<linearGradient id="paint1_linear_2396_6906" x1="9.6178" y1="25.6255" x2="84.4938" y2="3.18226" gradientUnits="userSpaceOnUse">
<stop offset="0.03" stop-color="#5277F7"/>
<stop offset="0.47" stop-color="#5A9AFA"/>
<stop offset="1" stop-color="#66CCFF"/>
</linearGradient>
<linearGradient id="paint2_linear_2396_6906" x1="-10.946" y1="31.2734" x2="21.8008" y2="23.9286" gradientUnits="userSpaceOnUse">
<stop offset="0.03" stop-color="#5277F7"/>
<stop offset="0.47" stop-color="#5A9AFA"/>
<stop offset="1" stop-color="#66CCFF"/>
</linearGradient>
<linearGradient id="paint3_linear_2396_6906" x1="53.1773" y1="-47.4308" x2="17.3504" y2="20.9149" gradientUnits="userSpaceOnUse">
<stop offset="0.03" stop-color="#5277F7"/>
<stop offset="0.47" stop-color="#5A9AFA"/>
<stop offset="1" stop-color="#66CCFF"/>
</linearGradient>
</defs>
</svg>
